<svg width="30" height="24" viewBox="0 0 30 24" fill="none" xmlns="http://www.w3.org/2000/svg">
<path d="M3.75 0.75C2.75544 0.75 1.80161 1.14509 1.09835 1.84835C0.395088 2.55161 0 3.50544 0 4.5L0 19.5C0 20.4946 0.395088 21.4484 1.09835 22.1516C1.80161 22.8549 2.75544 23.25 3.75 23.25H26.25C27.2446 23.25 28.1984 22.8549 28.9016 22.1516C29.6049 21.4484 30 20.4946 30 19.5V4.5C30 3.50544 29.6049 2.55161 28.9016 1.84835C28.1984 1.14509 27.2446 0.75 26.25 0.75H3.75ZM28.125 4.5V13.875H1.875V4.5C1.875 4.00272 2.07254 3.52581 2.42417 3.17417C2.77581 2.82254 3.25272 2.625 3.75 2.625H26.25C26.7473 2.625 27.2242 2.82254 27.5758 3.17417C27.9275 3.52581 28.125 4.00272 28.125 4.5ZM26.25 21.375H3.75C3.25272 21.375 2.77581 21.1775 2.42417 20.8258C2.07254 20.4742 1.875 19.9973 1.875 19.5V17.625H28.125V19.5C28.125 19.9973 27.9275 20.4742 27.5758 20.8258C27.2242 21.1775 26.7473 21.375 26.25 21.375Z" fill="black"/>
</svg>
