<svg width="30" height="23" viewBox="0 0 30 23" fill="none" xmlns="http://www.w3.org/2000/svg">
<path d="M3.75 0C2.75544 0 1.80161 0.395088 1.09835 1.09835C0.395088 1.80161 0 2.75544 0 3.75L0 18.75C0 19.7446 0.395088 20.6984 1.09835 21.4016C1.80161 22.1049 2.75544 22.5 3.75 22.5H26.25C27.2446 22.5 28.1984 22.1049 28.9016 21.4016C29.6049 20.6984 30 19.7446 30 18.75V3.75C30 2.75544 29.6049 1.80161 28.9016 1.09835C28.1984 0.395088 27.2446 0 26.25 0H3.75ZM28.125 3.75V13.125H1.875V3.75C1.875 3.25272 2.07254 2.77581 2.42417 2.42417C2.77581 2.07254 3.25272 1.875 3.75 1.875H26.25C26.7473 1.875 27.2242 2.07254 27.5758 2.42417C27.9275 2.77581 28.125 3.25272 28.125 3.75ZM26.25 20.625H3.75C3.25272 20.625 2.77581 20.4275 2.42417 20.0758C2.07254 19.7242 1.875 19.2473 1.875 18.75V16.875H28.125V18.75C28.125 19.2473 27.9275 19.7242 27.5758 20.0758C27.2242 20.4275 26.7473 20.625 26.25 20.625Z" fill="black"/>
</svg>
