<svg width="28" height="28" viewBox="0 0 28 28" fill="none" xmlns="http://www.w3.org/2000/svg">
<path d="M0 1.75C0 1.28587 0.1475 0.840752 0.410051 0.512563C0.672602 0.184375 1.0287 0 1.4 0C1.7713 0 2.1274 0.184375 2.38995 0.512563C2.6525 0.840752 2.8 1.28587 2.8 1.75V26.25C2.8 26.7141 2.6525 27.1593 2.38995 27.4874C2.1274 27.8156 1.7713 28 1.4 28C1.0287 28 0.672602 27.8156 0.410051 27.4874C0.1475 27.1593 0 26.7141 0 26.25V1.75ZM5.6 1.75C5.6 1.28587 5.7475 0.840752 6.01005 0.512563C6.2726 0.184375 6.6287 0 7 0C7.3713 0 7.7274 0.184375 7.98995 0.512563C8.2525 0.840752 8.4 1.28587 8.4 1.75V26.25C8.4 26.7141 8.2525 27.1593 7.98995 27.4874C7.7274 27.8156 7.3713 28 7 28C6.6287 28 6.2726 27.8156 6.01005 27.4874C5.7475 27.1593 5.6 26.7141 5.6 26.25V1.75ZM11.2 1.75C11.2 1.28587 11.3475 0.840752 11.6101 0.512563C11.8726 0.184375 12.2287 0 12.6 0C12.9713 0 13.3274 0.184375 13.5899 0.512563C13.8525 0.840752 14 1.28587 14 1.75V26.25C14 26.7141 13.8525 27.1593 13.5899 27.4874C13.3274 27.8156 12.9713 28 12.6 28C12.2287 28 11.8726 27.8156 11.6101 27.4874C11.3475 27.1593 11.2 26.7141 11.2 26.25V1.75ZM16.8 1.75C16.8 1.28587 16.9475 0.840752 17.21 0.512563C17.4726 0.184375 17.8287 0 18.2 0H21C21.3713 0 21.7274 0.184375 21.99 0.512563C22.2525 0.840752 22.4 1.28587 22.4 1.75V26.25C22.4 26.7141 22.2525 27.1593 21.99 27.4874C21.7274 27.8156 21.3713 28 21 28H18.2C17.8287 28 17.4726 27.8156 17.21 27.4874C16.9475 27.1593 16.8 26.7141 16.8 26.25V1.75ZM25.2 1.75C25.2 1.28587 25.3475 0.840752 25.61 0.512563C25.8726 0.184375 26.2287 0 26.6 0C26.9713 0 27.3274 0.184375 27.59 0.512563C27.8525 0.840752 28 1.28587 28 1.75V26.25C28 26.7141 27.8525 27.1593 27.59 27.4874C27.3274 27.8156 26.9713 28 26.6 28C26.2287 28 25.8726 27.8156 25.61 27.4874C25.3475 27.1593 25.2 26.7141 25.2 26.25V1.75Z" fill="black"/>
</svg>
