<svg width="30" height="30" viewBox="0 0 30 30" fill="none" xmlns="http://www.w3.org/2000/svg">
<path d="M14.2219 17.1814C14.5387 16.8642 15.0843 16.8642 15.4012 17.1814L19.9188 21.7044C20.752 22.5385 21.8608 22.9967 23.0343 22.9967H23.9202L18.2232 28.7004C16.4455 30.4332 13.5589 30.4332 11.7811 28.7004L6.0607 22.9791H6.60634C7.77977 22.9791 8.88865 22.5209 9.72178 21.6868L14.2219 17.1814ZM15.4012 12.8582C15.0257 13.1812 14.5445 13.1871 14.2219 12.8582L9.72178 8.35281C8.88865 7.46583 7.77977 7.06053 6.60634 7.06053H6.0607L11.7753 1.33689C13.5589 -0.445632 16.4455 -0.445632 18.2232 1.33689L23.9261 7.04291H23.0343C21.8608 7.04291 20.752 7.50108 19.9188 8.33519L15.4012 12.8582ZM6.60634 8.38218C7.41601 8.38218 8.16113 8.71113 8.78304 9.28678L13.2831 13.7921C13.7056 14.1622 14.2571 14.4265 14.8144 14.4265C15.3659 14.4265 15.9175 14.1622 16.3399 13.7921L20.8576 9.26916C21.4325 8.69938 22.2246 8.37043 23.0343 8.37043H25.2462L28.6667 11.795C30.4444 13.5748 30.4444 16.4648 28.6667 18.2446L25.2462 21.6692H23.0343C22.2246 21.6692 21.4325 21.3402 20.8576 20.7646L16.3399 16.2416C15.5244 15.4251 14.0986 15.4251 13.2831 16.2475L8.78304 20.747C8.16113 21.3226 7.41601 21.6516 6.60634 21.6516H4.73943L1.33533 18.2446C-0.445109 16.4648 -0.445109 13.5748 1.33533 11.795L4.73943 8.38218H6.60634Z" fill="#303030"/>
</svg>
