<svg width="35" height="35" viewBox="0 0 35 35" fill="none" xmlns="http://www.w3.org/2000/svg">
<path d="M20 0H24.95C25.31 1.56406 26.3 3.53719 28.0375 5.495C29.7375 7.41344 31.9925 8.75 35 8.75V13.125C30.6175 13.125 27.325 11.3444 25 9.12406V24.0625C25 26.2257 24.2669 28.3404 22.8934 30.139C21.5199 31.9377 19.5676 33.3396 17.2835 34.1674C14.9995 34.9953 12.4861 35.2119 10.0614 34.7898C7.63661 34.3678 5.40933 33.3261 3.66117 31.7965C1.91301 30.2668 0.722505 28.318 0.24019 26.1963C-0.242126 24.0746 0.00541605 21.8755 0.951511 19.8769C1.89761 17.8783 3.49976 16.1701 5.55538 14.9683C7.61099 13.7665 10.0277 13.125 12.5 13.125V17.5C11.0166 17.5 9.5666 17.8849 8.33323 18.606C7.09986 19.3271 6.13857 20.352 5.57091 21.5511C5.00325 22.7503 4.85473 24.0698 5.14411 25.3428C5.4335 26.6158 6.14781 27.7851 7.1967 28.7029C8.2456 29.6207 9.58197 30.2457 11.0368 30.4989C12.4917 30.7521 13.9997 30.6222 15.3701 30.1255C16.7406 29.6288 17.9119 28.7876 18.736 27.7084C19.5601 26.6292 20 25.3604 20 24.0625V0Z" fill="#D6A836"/>
</svg>
