<svg width="35" height="35" viewBox="0 0 35 35" fill="none" xmlns="http://www.w3.org/2000/svg">
<path d="M29.7522 5.08823C28.1476 3.46878 26.2367 2.18486 24.131 1.31131C22.0252 0.437752 19.7666 -0.00797185 17.4869 0.000107911C7.93406 0.000107911 0.14875 7.78323 0.14 17.3382C0.14 20.3985 0.940625 23.3757 2.45219 26.0117L0 35.0001L9.19625 32.5895C11.7403 33.974 14.5905 34.6997 17.4869 34.7004H17.4956C27.0506 34.7004 34.8338 26.9173 34.8425 17.3535C34.8447 15.0743 34.3958 12.8171 33.5218 10.712C32.6478 8.60698 31.3681 6.69568 29.7522 5.08823ZM17.4869 31.7648C14.9034 31.7657 12.3675 31.0705 10.1456 29.7523L9.62062 29.4373L4.165 30.8679L5.62187 25.5457L5.28062 24.9967C3.83645 22.7005 3.07267 20.042 3.07781 17.3295C3.07781 9.39761 9.54625 2.92698 17.4956 2.92698C19.3894 2.92359 21.2652 3.29508 23.0147 4.02006C24.7643 4.74503 26.353 5.80915 27.6894 7.15105C29.0304 8.48772 30.0935 10.0767 30.8173 11.8262C31.5412 13.5758 31.9115 15.4514 31.9069 17.3448C31.8981 25.3051 25.4297 31.7648 17.4869 31.7648ZM25.3947 20.9717C24.9638 20.7551 22.8353 19.7073 22.435 19.5585C22.0369 19.4164 21.7459 19.342 21.4616 19.7751C21.1706 20.206 20.3394 21.1882 20.09 21.4704C19.8406 21.7614 19.5825 21.7942 19.1494 21.5798C18.7184 21.361 17.3206 20.906 15.6669 19.4251C14.3763 18.2767 13.5122 16.8548 13.2541 16.4239C13.0047 15.9907 13.23 15.7589 13.4466 15.5423C13.6369 15.3498 13.8775 15.0348 14.0941 14.7854C14.3128 14.536 14.385 14.3523 14.5272 14.0635C14.6694 13.7704 14.6016 13.521 14.4944 13.3045C14.385 13.0879 13.5209 10.9507 13.1556 10.0889C12.8056 9.23792 12.4491 9.35605 12.1822 9.34511C11.9328 9.3298 11.6419 9.3298 11.3509 9.3298C11.1312 9.33526 10.915 9.38607 10.7159 9.47905C10.5168 9.57203 10.339 9.70517 10.1937 9.87011C9.79562 10.3032 8.68219 11.351 8.68219 13.4882C8.68219 15.6254 10.2353 17.6795 10.4541 17.9704C10.6684 18.2614 13.5034 22.6342 17.8544 24.5154C18.8825 24.9639 19.6919 25.2285 20.3241 25.4298C21.3631 25.7623 22.3016 25.712 23.0497 25.6048C23.8809 25.4779 25.6112 24.5548 25.9766 23.542C26.3353 22.527 26.3353 21.6607 26.2259 21.4792C26.1188 21.2954 25.8278 21.1882 25.3947 20.9717Z" fill="#D6A836"/>
</svg>
