<svg width="50" height="50" viewBox="0 0 50 50" fill="none" xmlns="http://www.w3.org/2000/svg">
<circle cx="25" cy="25" r="25" fill="#F8CCD2"/>
<circle cx="25" cy="25" r="25" fill="#F8CCD2"/>
<circle cx="25" cy="25" r="25" fill="#F8CCD2"/>
<circle cx="25" cy="25" r="25" fill="#F8CCD2"/>
<g clip-path="url(#clip0_0_1)">
<path d="M40 25.0919C40 16.7557 33.2838 9.99817 25 9.99817C16.7125 10 9.99628 16.7557 9.99628 25.0938C9.99628 32.6257 15.4825 38.8694 22.6525 40.0019V29.455H18.8463V25.0938H22.6563V21.7657C22.6563 17.9838 24.8969 15.895 28.3225 15.895C29.965 15.895 31.6806 16.1894 31.6806 16.1894V19.9019H29.7888C27.9269 19.9019 27.3457 21.0663 27.3457 22.2607V25.0919H31.5044L30.8407 29.4532H27.3438V40C34.5138 38.8675 40 32.6238 40 25.0919Z" fill="white"/>
</g>
<defs>
<clipPath id="clip0_0_1">
<rect width="30" height="30" fill="white" transform="translate(10 10)"/>
</clipPath>
</defs>
</svg>
