<svg width="50" height="50" viewBox="0 0 50 50" fill="none" xmlns="http://www.w3.org/2000/svg">
<circle cx="25" cy="25" r="25" fill="#F8CCD2"/>
<circle cx="25" cy="25" r="25" fill="#F8CCD2"/>
<circle cx="25" cy="25" r="25" fill="#7C969D"/>
<g clip-path="url(#clip0_0_1)">
<path d="M25 10C20.9294 10 20.4175 10.0188 18.8181 10.09C17.2188 10.165 16.1294 10.4162 15.175 10.7875C14.1739 11.164 13.2672 11.7547 12.5181 12.5181C11.7551 13.2676 11.1646 14.1742 10.7875 15.175C10.4162 16.1275 10.1631 17.2187 10.09 18.8125C10.0188 20.4156 10 20.9256 10 25.0019C10 29.0744 10.0188 29.5844 10.09 31.1838C10.165 32.7812 10.4162 33.8706 10.7875 34.825C11.1719 35.8112 11.6838 36.6475 12.5181 37.4819C13.3506 38.3162 14.1869 38.83 15.1731 39.2125C16.1294 39.5837 17.2169 39.8369 18.8144 39.91C20.4156 39.9812 20.9256 40 25 40C29.0744 40 29.5825 39.9812 31.1838 39.91C32.7794 39.835 33.8725 39.5837 34.8269 39.2125C35.8273 38.8358 36.7334 38.2451 37.4819 37.4819C38.3162 36.6475 38.8281 35.8112 39.2125 34.825C39.5819 33.8706 39.835 32.7812 39.91 31.1838C39.9812 29.5844 40 29.0744 40 25C40 20.9256 39.9812 20.4156 39.91 18.8144C39.835 17.2188 39.5819 16.1275 39.2125 15.175C38.8355 14.1742 38.2449 13.2675 37.4819 12.5181C36.7331 11.7544 35.8262 11.1637 34.825 10.7875C33.8687 10.4162 32.7775 10.1631 31.1819 10.09C29.5806 10.0188 29.0725 10 24.9963 10H25.0019H25ZM23.6556 12.7038H25.0019C29.0069 12.7038 29.4812 12.7169 31.0619 12.79C32.5244 12.8556 33.3194 13.1012 33.8481 13.3056C34.5475 13.5775 35.0481 13.9037 35.5731 14.4288C36.0981 14.9538 36.4225 15.4525 36.6944 16.1537C36.9006 16.6806 37.1444 17.4756 37.21 18.9381C37.2831 20.5188 37.2981 20.9931 37.2981 24.9963C37.2981 28.9994 37.2831 29.4756 37.21 31.0562C37.1444 32.5187 36.8988 33.3119 36.6944 33.8406C36.4539 34.4919 36.07 35.0808 35.5712 35.5637C35.0462 36.0887 34.5475 36.4131 33.8463 36.685C33.3213 36.8913 32.5262 37.135 31.0619 37.2025C29.4812 37.2738 29.0069 37.2906 25.0019 37.2906C20.9969 37.2906 20.5206 37.2738 18.94 37.2025C17.4775 37.135 16.6844 36.8913 16.1556 36.685C15.5041 36.4449 14.9146 36.0617 14.4306 35.5637C13.9314 35.0801 13.547 34.4906 13.3056 33.8387C13.1012 33.3119 12.8556 32.5169 12.79 31.0544C12.7188 29.4738 12.7038 28.9994 12.7038 24.9925C12.7038 20.9875 12.7188 20.515 12.79 18.9344C12.8575 17.4719 13.1013 16.6769 13.3075 16.1481C13.5794 15.4488 13.9056 14.9481 14.4306 14.4231C14.9556 13.8981 15.4544 13.5738 16.1556 13.3019C16.6844 13.0956 17.4775 12.8519 18.94 12.7844C20.3238 12.7206 20.86 12.7019 23.6556 12.7V12.7038ZM33.0081 15.1937C32.7717 15.1937 32.5377 15.2403 32.3193 15.3308C32.1009 15.4212 31.9025 15.5538 31.7353 15.721C31.5682 15.8881 31.4356 16.0865 31.3451 16.3049C31.2547 16.5233 31.2081 16.7574 31.2081 16.9938C31.2081 17.2301 31.2547 17.4642 31.3451 17.6826C31.4356 17.901 31.5682 18.0994 31.7353 18.2665C31.9025 18.4337 32.1009 18.5663 32.3193 18.6567C32.5377 18.7472 32.7717 18.7937 33.0081 18.7937C33.4855 18.7937 33.9434 18.6041 34.2809 18.2665C34.6185 17.929 34.8081 17.4711 34.8081 16.9938C34.8081 16.5164 34.6185 16.0585 34.2809 15.721C33.9434 15.3834 33.4855 15.1937 33.0081 15.1937ZM25.0019 17.2975C23.9801 17.2816 22.9654 17.469 22.0168 17.849C21.0682 18.229 20.2047 18.7939 19.4765 19.5108C18.7483 20.2277 18.1701 21.0823 17.7753 22.0249C17.3806 22.9674 17.1773 23.9791 17.1773 25.0009C17.1773 26.0228 17.3806 27.0345 17.7753 27.977C18.1701 28.9196 18.7483 29.7742 19.4765 30.4911C20.2047 31.208 21.0682 31.7729 22.0168 32.1529C22.9654 32.5328 23.9801 32.7203 25.0019 32.7044C27.0241 32.6728 28.9529 31.8473 30.3718 30.4061C31.7908 28.9649 32.5861 27.0234 32.5861 25.0009C32.5861 22.9784 31.7908 21.037 30.3718 19.5958C28.9529 18.1545 27.0241 17.3291 25.0019 17.2975ZM25.0019 19.9994C26.3281 19.9994 27.6001 20.5262 28.5379 21.464C29.4757 22.4018 30.0025 23.6738 30.0025 25C30.0025 26.3262 29.4757 27.5982 28.5379 28.536C27.6001 29.4738 26.3281 30.0006 25.0019 30.0006C23.6756 30.0006 22.4037 29.4738 21.4659 28.536C20.5281 27.5982 20.0013 26.3262 20.0013 25C20.0013 23.6738 20.5281 22.4018 21.4659 21.464C22.4037 20.5262 23.6756 19.9994 25.0019 19.9994Z" fill="white"/>
</g>
<defs>
<clipPath id="clip0_0_1">
<rect width="30" height="30" fill="white" transform="translate(10 10)"/>
</clipPath>
</defs>
</svg>
