<svg width="50" height="50" viewBox="0 0 50 50" fill="none" xmlns="http://www.w3.org/2000/svg">
<circle cx="25" cy="25" r="25" fill="#B0C6B5"/>
<path d="M27.1429 10H31.3857C31.6943 11.3406 32.5429 13.0319 34.0321 14.71C35.4893 16.3544 37.4221 17.5 40 17.5V21.25C36.2436 21.25 33.4214 19.7237 31.4286 17.8206V30.625C31.4286 32.4792 30.8002 34.2918 29.6229 35.8335C28.4456 37.3752 26.7722 38.5768 24.8145 39.2864C22.8567 39.9959 20.7024 40.1816 18.624 39.8199C16.5457 39.4581 14.6366 38.5652 13.1381 37.2541C11.6397 35.943 10.6193 34.2725 10.2059 32.454C9.79246 30.6354 10.0046 28.7504 10.8156 27.0373C11.6265 25.3243 12.9998 23.8601 14.7618 22.83C16.5237 21.7998 18.5952 21.25 20.7143 21.25V25C19.4428 25 18.1999 25.3299 17.1428 25.948C16.0856 26.5661 15.2616 27.4446 14.7751 28.4724C14.2885 29.5002 14.1612 30.6312 14.4092 31.7224C14.6573 32.8135 15.2696 33.8158 16.1686 34.6025C17.0677 35.3891 18.2131 35.9249 19.4601 36.1419C20.7072 36.359 21.9997 36.2476 23.1744 35.8218C24.3491 35.3961 25.3531 34.6751 26.0595 33.7501C26.7658 32.8251 27.1429 31.7375 27.1429 30.625V10Z" fill="white"/>
</svg>
