<svg width="50" height="50" viewBox="0 0 50 50" fill="none" xmlns="http://www.w3.org/2000/svg">
<circle cx="25" cy="25" r="25" fill="#F8CCD2"/>
<circle cx="25" cy="25" r="25" fill="#D6A836"/>
<g clip-path="url(#clip0_0_1)">
<path d="M35.5019 14.3613C34.1265 12.9732 32.4886 11.8727 30.6837 11.124C28.8787 10.3752 26.9428 9.99317 24.9888 10.0001C16.8006 10.0001 10.1275 16.6713 10.12 24.8613C10.12 27.4845 10.8063 30.0363 12.1019 32.2957L10 40.0001L17.8825 37.9338C20.0631 39.1206 22.5061 39.7426 24.9888 39.7432H24.9963C33.1863 39.7432 39.8575 33.072 39.865 24.8745C39.8669 22.9208 39.4822 20.9861 38.733 19.1817C37.9839 17.3774 36.887 15.7392 35.5019 14.3613ZM24.9888 37.227C22.7744 37.2277 20.6007 36.6318 18.6963 35.502L18.2463 35.232L13.57 36.4582L14.8188 31.8963L14.5263 31.4257C13.2884 29.4576 12.6337 27.1789 12.6381 24.8538C12.6381 18.0551 18.1825 12.5088 24.9963 12.5088C26.6195 12.5059 28.2273 12.8244 29.7269 13.4458C31.2265 14.0672 32.5883 14.9793 33.7338 16.1295C34.8832 17.2752 35.7944 18.6371 36.4149 20.1368C37.0353 21.6364 37.3527 23.2441 37.3488 24.867C37.3413 31.6901 31.7969 37.227 24.9888 37.227ZM31.7669 27.9757C31.3975 27.7901 29.5731 26.892 29.23 26.7645C28.8888 26.6426 28.6394 26.5788 28.3956 26.9501C28.1463 27.3195 27.4338 28.1613 27.22 28.4032C27.0063 28.6526 26.785 28.6807 26.4137 28.497C26.0444 28.3095 24.8463 27.9195 23.4288 26.6501C22.3225 25.6657 21.5819 24.447 21.3606 24.0776C21.1469 23.7063 21.34 23.5076 21.5256 23.322C21.6888 23.157 21.895 22.887 22.0806 22.6732C22.2681 22.4595 22.33 22.302 22.4519 22.0545C22.5738 21.8032 22.5156 21.5895 22.4238 21.4038C22.33 21.2182 21.5894 19.3863 21.2763 18.6476C20.9763 17.9182 20.6706 18.0195 20.4419 18.0101C20.2281 17.997 19.9788 17.997 19.7294 17.997C19.5411 18.0016 19.3557 18.0452 19.1851 18.1249C19.0144 18.2046 18.862 18.3187 18.7375 18.4601C18.3963 18.8313 17.4419 19.7295 17.4419 21.5613C17.4419 23.3932 18.7731 25.1538 18.9606 25.4032C19.1444 25.6526 21.5744 29.4007 25.3038 31.0132C26.185 31.3976 26.8788 31.6245 27.4206 31.797C28.3113 32.082 29.1156 32.0388 29.7569 31.947C30.4694 31.8382 31.9525 31.047 32.2656 30.1788C32.5731 29.3088 32.5731 28.5663 32.4794 28.4107C32.3875 28.2532 32.1381 28.1613 31.7669 27.9757Z" fill="white"/>
</g>
<defs>
<clipPath id="clip0_0_1">
<rect width="30" height="30" fill="white" transform="translate(10 10)"/>
</clipPath>
</defs>
</svg>
